<svg width="1440" height="5295" viewBox="0 0 1440 5295" fill="none" xmlns="http://www.w3.org/2000/svg">
<path d="M473.722 135.578C421.861 87.5962 378.59 78.0074 311.9 54.6763C239.489 29.3437 211.93 -27.6788 119.319 15.9376C26.7073 59.5541 117.393 16.6867 116.43 17.0613C116.43 17.0613 138.28 192.5 43.2804 328.5C-51.7195 464.5 26.0497 540.769 119.319 597.5C205.926 650.179 282.554 599.839 376.43 561.821C464.604 526.113 539.2 510.284 574.346 419.805C609.492 329.325 560.153 215.543 473.722 135.578Z" transform="translate(1861.23 772) rotate(90)" fill="#E0E0E0"/>
<path d="M473.722 135.578C421.861 87.5962 378.59 78.0074 311.9 54.6763C239.489 29.3437 211.93 -27.6788 119.319 15.9376C26.7073 59.5541 117.393 16.6867 116.43 17.0613C116.43 17.0613 138.28 192.5 43.2804 328.5C-51.7195 464.5 26.0497 540.769 119.319 597.5C205.926 650.179 282.554 599.839 376.43 561.821C464.604 526.113 539.2 510.284 574.346 419.805C609.492 329.325 560.153 215.543 473.722 135.578Z" transform="translate(-460.817 1951.2) rotate(-21.4253)" fill="#E0E0E0"/>
<path d="M473.722 135.578C421.861 87.5962 378.59 78.0074 311.9 54.6763C239.489 29.3437 211.93 -27.6788 119.319 15.9376C26.7073 59.5541 117.393 16.6867 116.43 17.0613C116.43 17.0613 138.28 192.5 43.2804 328.5C-51.7195 464.5 26.0497 540.769 119.319 597.5C205.926 650.179 282.554 599.839 376.43 561.821C464.604 526.113 539.2 510.284 574.346 419.805C609.492 329.325 560.153 215.543 473.722 135.578Z" transform="translate(1973.95 3169.65) rotate(140.801)" fill="#E0E0E0"/>
<path d="M545.165 90.0009C484.626 20.4548 384.434 9.92581 294.626 1.45478C193.907 -8.04534 134.314 30.4546 41.7031 74.071C-50.9081 117.687 39.7773 74.8201 38.8144 75.1946V556.111C38.8144 563.281 41.7031 653.955 41.7031 653.955C41.7031 653.955 172.054 528.454 264.165 503.077C393.143 467.544 497.165 593.577 582.165 423.577C640.037 307.833 622.476 178.813 545.165 90.0009Z" transform="translate(-359)" fill="#E0E0E0"/>
<path d="M545.165 90.0009C484.626 20.4548 384.434 9.92581 294.626 1.45478C193.907 -8.04534 134.314 30.4546 41.7031 74.071C-50.9081 117.687 39.7773 74.8201 38.8144 75.1946V556.111C38.8144 563.281 41.7031 653.955 41.7031 653.955C41.7031 653.955 172.054 528.454 264.165 503.077C393.143 467.544 497.165 593.577 582.165 423.577C640.037 307.833 622.476 178.813 545.165 90.0009Z" transform="translate(1551.47 5294.28) rotate(-156.543)" fill="#E0E0E0"/>
<path d="M545.165 99.4085C484.626 29.8623 373.626 54.4086 294.626 10.8623C227.442 -26.1706 134.314 39.8621 41.7031 83.4785C-50.9081 127.095 39.7773 84.2276 38.8144 84.6021V565.519C38.8144 572.688 41.7031 663.362 41.7031 663.362C41.7031 663.362 172.054 537.861 264.165 512.485C393.143 476.952 497.165 602.985 582.165 432.985C640.037 317.241 622.476 188.221 545.165 99.4085Z" transform="translate(-230 3405)" fill="#E0E0E0"/>
</svg>
