<svg width="1440" height="5203" viewBox="0 0 1440 5203" fill="none" xmlns="http://www.w3.org/2000/svg">
<path d="M1173.53 893.699C1157.64 932.43 1035.8 776.76 1022.14 813.381C1010.84 843.671 1125.35 825.795 1107.59 855.216C1086.22 890.844 1071.07 910.83 1052.94 946.334C1038.03 975.63 1102.12 952.292 1081.63 980.348C1057.04 1014.11 1005.87 897.92 982.146 930.568C962.523 957.506 991.337 947.327 968.112 970.417C939.919 998.224 923.525 979.23 892.724 1002.94C867.14 1022.55 990.343 1058.06 961.654 1075.44C927.127 1096.54 908.125 1011.26 877.324 1037.95C851.864 1060.04 867.388 1126.71 837.457 1143.34C801.191 1163.33 887.757 1046.64 852.857 1069.98C823.919 1089.47 847.765 1104.73 816.592 1120.62C778.96 1139.62 789.02 1129.07 750.146 1145.33C717.979 1158.86 827.024 1220.93 793.615 1229.37C753.376 1239.55 726.922 1104.24 687.551 1115.16C655.012 1124.22 773.247 1136.14 739.714 1142.47C698.977 1149.92 660.973 1169.78 619.615 1173.13C585.461 1175.74 634.395 1179.96 599.868 1184.56C558.014 1190.14 588.318 1139.24 548.451 1142.84C515.29 1145.82 560.001 1230.86 526.592 1223.04C486.228 1213.73 512.558 1065.63 470.828 1059.67C436.177 1054.83 515.663 1218.45 484.862 1206.03C447.603 1190.89 503.74 1145.45 466.853 1131.42C436.549 1119.88 454.93 1188.78 422.639 1175.87C383.517 1160.35 367.868 1099.27 330.113 1089.09C298.939 1080.65 419.038 1164.07 392.584 1144.21C360.541 1120.25 402.395 1043.29 368.986 1023.18C341.29 1006.54 314.588 1086.61 287.141 1066.87C253.98 1043.29 333.839 984.444 299.312 965.451C270.746 949.81 266.648 1140.11 240.442 1117.65C208.896 1090.33 281.676 1020.82 254.228 990.775C231.376 966.072 192.875 1085.24 169.153 1059.92C140.712 1029.26 250.378 988.168 227.65 953.534C208.772 924.858 134.006 987.92 116.991 960.858C96.6225 928.209 163.937 919.023 137.732 885.754C115.997 858.195 149.53 948.32 129.907 919.892C106.186 885.382 138.725 852.112 119.475 817.974C103.577 789.795 37.629 894.816 23.8431 863.161C7.20072 824.678 159.963 802.457 145.183 766.457C133.012 736.664 7.57331 814.002 0.494085 779.988C-8.0755 738.898 97.7402 681.67 92.3998 642.442C88.0529 609.918 75.3848 695.574 71.2863 661.187C66.1942 619.849 60.978 611.408 53.7746 572.925C48.0615 541.021 48.9308 612.028 55.1407 579.752C62.7167 540.649 40.2371 602.221 44.8324 563.49C48.5583 531.338 16.1429 571.311 24.8367 539.78C35.145 501.793 59.115 576.028 68.3056 535.435C76.0058 501.917 -0.126919 471.379 9.80883 439.227C21.9801 400.248 135.869 469.517 152.014 434.138C165.428 404.841 89.9158 395.034 107.924 366.11C129.907 331.227 130.528 435.007 148.04 399.007C162.571 369.089 42.4726 329.241 60.7296 301.309C82.8366 267.792 203.804 398.758 230.507 366.73C252.49 340.289 68.3056 259.475 88.5497 232.164C113.016 198.895 163.937 360.027 186.168 326.758C204.55 299.323 180.331 266.551 202.066 242.095C228.395 212.426 244.417 232.909 277.453 209.571C304.776 190.454 178.468 222.854 206.537 206.964C240.567 187.847 254.725 251.778 290.866 231.792C320.674 215.405 303.534 185.985 332.597 169.847C367.744 150.233 392.087 231.792 428.725 212.302C459.029 196.288 320.053 61.846 351.474 48.5632C389.603 32.5493 340.173 170.84 378.798 157.433C410.841 146.26 417.671 126.15 450.459 116.591C490.078 105.046 403.14 109.267 443.38 105.046C476.541 101.57 470.331 93.7496 504.485 90.522C545.718 86.4255 469.213 119.074 509.329 117.212C542.489 115.722 498.896 38.7562 531.063 35.7769C569.813 32.1769 540.378 155.198 580.618 150.233C613.778 146.136 572.421 -2.2095 604.215 0.0249904C642.716 2.88018 619.988 167.985 660.104 173.198C693.389 177.419 727.418 24.1079 759.213 26.9631C797.714 30.4389 735.243 152.095 775.234 161.529C808.271 169.474 789.765 45.4597 821.56 57.0046C859.688 71.0323 763.932 194.302 798.956 213.792C827.894 229.806 861.551 145.764 890.862 159.171C926.133 175.433 761.945 130.495 799.453 146.012C830.502 158.922 859.191 98.7152 883.161 120.439C912.099 146.757 841.928 163.764 868.879 191.323C891.358 213.916 907.628 160.04 929.735 185.861C956.313 217.019 885.148 295.723 915.949 322.413C941.534 344.51 978.917 187.474 999.037 212.799C1023.26 243.213 914.583 334.951 942.403 362.261C965.504 384.855 1029.84 295.351 1051.32 321.544C1077.16 353.075 1016.18 391.682 1032.45 427.31C1045.86 456.855 1140.5 374.303 1153.54 405.834C1169.31 443.821 1030.21 447.669 1050.7 482.676C1067.72 511.6 1138.88 418.124 1146.33 450.152C1155.28 488.759 1007.85 500.924 1024.87 536.924C1038.9 566.842 1158.13 469.393 1167.94 502.414C1179.5 542.262 1065.73 532.58 1077.9 570.07C1087.96 601.228 1211.91 505.89 1212.41 538.787C1213.03 578.511 1110.19 530.345 1114.66 571.187C1118.27 604.952 1115.04 578.139 1114.91 610.415C1114.91 649.27 1121.12 678.318 1123.61 718.788C1125.72 752.305 1153.54 710.967 1143.6 742.498C1131.56 780.857 1107.96 741.877 1101.75 780.36C1096.66 812.14 1169.56 731.946 1160.24 763.477C1148.94 801.34 1035.05 741.753 1018.16 778.126C1004.13 808.292 1186.7 861.671 1173.53 893.699Z" transform="translate(229.372 47.5538) rotate(50.0471)" fill="#E0E0E0"/>
<path d="M3.03215e-05 5.14306C3.03215e-05 5.14306 58.1242 11.2258 60.1113 8.99133C62.0985 6.75683 65.0791 1.04646 60.608 0.301627C56.1369 -0.443205 8.07283 0.425811 8.07283 0.425811L3.03215e-05 5.14306Z" transform="translate(524.099 1250.7) rotate(50.0471)" fill="#E0E0E0"/>
<path d="M-6.0643e-05 6.20693C2.48388 7.57246 16.8908 9.3104 16.8908 9.3104L16.0214 0L-6.0643e-05 6.20693Z" transform="translate(505.602 1222.13) rotate(50.0471)" fill="#E0E0E0"/>
<path d="M2.49929 18.5575C-14.5157 28.9852 58.1394 24.8885 135.638 20.0471C143.587 19.6747 146.94 18.4334 138.619 14.3368C138.619 14.3368 75.0303 5.64712 65.0945 6.76437C55.283 7.88162 35.1631 -2.17366 29.6984 0.433256C24.2338 3.04017 13.9254 13.2196 2.49929 18.5575Z" transform="translate(642.485 1381.57) rotate(50.0471)" fill="#E0E0E0"/>
<path d="M1.60029 10.7626C-5.60313 18.3351 13.2748 28.142 23.2106 21.9351C33.1463 15.7282 34.7608 2.19711 29.6688 0.335027C23.0863 -2.02361 0.482518 8.77641 1.60029 10.7626Z" transform="translate(746.263 1509.67) rotate(50.0471)" fill="#E0E0E0"/>
<path d="M4.74138 11.5253C8.34309 12.0219 11.6963 11.8977 14.3045 10.0356C16.9126 7.18044 18.4029 3.08389 14.4286 1.22182C10.4543 -0.640263 5.48659 -0.391971 1.51229 2.0908C-0.97165 5.69082 -0.723287 8.91839 4.74138 11.5253Z" transform="translate(718.652 1451.74) rotate(50.0471)" fill="#E0E0E0"/>
<path d="M26.5936 200.171C38.1439 195.951 47.2103 172.364 59.3816 174.226C71.5529 176.088 73.7884 231.33 86.8291 247.592C99.7456 263.854 142.345 223.013 151.66 246.972C160.975 270.93 131.913 290.544 143.339 296.379C154.765 302.213 178.611 287.441 195.75 284.337C212.889 281.234 248.285 294.144 263.685 294.393C279.086 294.641 276.974 281.358 281.321 260.503C285.668 239.647 342.054 248.461 339.446 227.358C336.837 206.254 337.334 180.682 343.296 174.475C349.257 168.392 347.767 168.64 365.278 161.192C382.79 153.744 365.154 134.378 350.499 125.564C335.844 116.75 294.486 100.985 305.912 85.219C310.011 78.1431 338.328 59.0258 324.418 49.7154C310.383 40.405 274.739 45.3705 267.411 39.4119C260.084 33.4532 258.469 23.8946 258.469 15.329C258.469 6.76343 241.827 -10.4918 218.85 8.74964C195.874 27.9911 172.028 -0.0642017 160.85 4.40479C149.797 8.87378 143.711 34.6946 135.514 42.7636C127.317 50.8326 124.461 28.8601 113.904 32.5843C103.347 36.3084 103.471 60.0189 95.8954 67.2189C88.3194 74.5431 63.9769 76.9017 62.6107 83.7294C61.2446 90.4328 78.5079 103.592 76.3965 115.136C74.2852 126.681 52.7991 128.916 50.4394 133.881C48.0796 138.847 57.6428 151.881 53.0475 157.84C48.4522 163.799 4.61078 186.392 5.48016 193.344C6.34953 200.296 18.5207 188.13 18.2723 191.358C18.0239 194.709 -1.84752 199.427 0.139629 203.399C2.12678 207.62 15.0433 204.392 26.5936 200.171Z" transform="translate(953.896 864.067) rotate(50.0471)" fill="#E0E0E0"/>
<path d="M7.92925 36.937C15.5053 35.3232 12.2761 15.5852 12.2761 5.90237C12.2761 -3.78044 2.713 -0.304566 0.725851 7.39203C-1.1371 15.2128 0.353245 38.5508 7.92925 36.937Z" transform="translate(678.667 435.752) rotate(50.0471)" fill="#E0E0E0"/>
<path d="M1173.53 893.699C1157.64 932.43 1035.8 776.76 1022.14 813.381C1010.84 843.671 1125.35 825.795 1107.59 855.216C1086.22 890.844 1071.07 910.83 1052.94 946.334C1038.03 975.63 1102.12 952.292 1081.63 980.348C1057.04 1014.11 1005.87 897.92 982.146 930.568C962.523 957.506 991.337 947.327 968.112 970.417C939.919 998.224 923.525 979.23 892.724 1002.94C867.14 1022.55 990.343 1058.06 961.654 1075.44C927.127 1096.54 908.125 1011.26 877.324 1037.95C851.864 1060.04 867.388 1126.71 837.457 1143.34C801.191 1163.33 887.757 1046.64 852.857 1069.98C823.919 1089.47 847.765 1104.73 816.592 1120.62C778.96 1139.62 789.02 1129.07 750.146 1145.33C717.979 1158.86 827.024 1220.93 793.615 1229.37C753.376 1239.55 726.922 1104.24 687.551 1115.16C655.012 1124.22 773.247 1136.14 739.714 1142.47C698.977 1149.92 660.973 1169.78 619.615 1173.13C585.461 1175.74 634.395 1179.96 599.868 1184.56C558.014 1190.14 588.318 1139.24 548.451 1142.84C515.29 1145.82 560.001 1230.86 526.592 1223.04C486.228 1213.73 512.558 1065.63 470.828 1059.67C436.177 1054.83 515.663 1218.45 484.862 1206.03C447.603 1190.89 503.74 1145.45 466.853 1131.42C436.549 1119.88 454.93 1188.78 422.639 1175.87C383.517 1160.35 367.868 1099.27 330.113 1089.09C298.939 1080.65 419.038 1164.07 392.584 1144.21C360.541 1120.25 402.395 1043.29 368.986 1023.18C341.29 1006.54 314.588 1086.61 287.141 1066.87C253.98 1043.29 333.839 984.444 299.312 965.451C270.746 949.81 266.648 1140.11 240.442 1117.65C208.896 1090.33 281.676 1020.82 254.228 990.775C231.376 966.072 192.875 1085.24 169.153 1059.92C140.712 1029.26 250.378 988.168 227.65 953.534C208.772 924.858 134.006 987.92 116.991 960.858C96.6225 928.209 163.937 919.023 137.732 885.754C115.997 858.195 149.53 948.32 129.907 919.892C106.186 885.382 138.725 852.112 119.475 817.974C103.577 789.795 37.629 894.816 23.8431 863.161C7.20072 824.678 159.963 802.457 145.183 766.457C133.012 736.664 7.57331 814.002 0.494085 779.988C-8.0755 738.898 97.7402 681.67 92.3998 642.442C88.0529 609.918 75.3848 695.574 71.2863 661.187C66.1942 619.849 60.978 611.408 53.7746 572.925C48.0615 541.021 48.9308 612.028 55.1407 579.752C62.7167 540.649 40.2371 602.221 44.8324 563.49C48.5583 531.338 16.1429 571.311 24.8367 539.78C35.145 501.793 59.115 576.028 68.3056 535.435C76.0058 501.917 -0.126919 471.379 9.80883 439.227C21.9801 400.248 135.869 469.517 152.014 434.138C165.428 404.841 89.9158 395.034 107.924 366.11C129.907 331.227 130.528 435.007 148.04 399.007C162.571 369.089 42.4726 329.241 60.7296 301.309C82.8366 267.792 203.804 398.758 230.507 366.73C252.49 340.289 68.3056 259.475 88.5497 232.164C113.016 198.895 163.937 360.027 186.168 326.758C204.55 299.323 180.331 266.551 202.066 242.095C228.395 212.426 244.417 232.909 277.453 209.571C304.776 190.454 178.468 222.854 206.537 206.964C240.567 187.847 254.725 251.778 290.866 231.792C320.674 215.405 303.534 185.985 332.597 169.847C367.744 150.233 392.087 231.792 428.725 212.302C459.029 196.288 320.053 61.846 351.474 48.5632C389.603 32.5493 340.173 170.84 378.798 157.433C410.841 146.26 417.671 126.15 450.459 116.591C490.078 105.046 403.14 109.267 443.38 105.046C476.541 101.57 470.331 93.7496 504.485 90.522C545.718 86.4255 469.213 119.074 509.329 117.212C542.489 115.722 498.896 38.7562 531.063 35.7769C569.813 32.1769 540.378 155.198 580.618 150.233C613.778 146.136 572.421 -2.2095 604.215 0.0249904C642.716 2.88018 619.988 167.985 660.104 173.198C693.389 177.419 727.418 24.1079 759.213 26.9631C797.714 30.4389 735.243 152.095 775.234 161.529C808.271 169.474 789.765 45.4597 821.56 57.0046C859.688 71.0323 763.932 194.302 798.956 213.792C827.894 229.806 861.551 145.764 890.862 159.171C926.133 175.433 761.945 130.495 799.453 146.012C830.502 158.922 859.191 98.7152 883.161 120.439C912.099 146.757 841.928 163.764 868.879 191.323C891.358 213.916 907.628 160.04 929.735 185.861C956.313 217.019 885.148 295.723 915.949 322.413C941.534 344.51 978.917 187.474 999.037 212.799C1023.26 243.213 914.583 334.951 942.403 362.261C965.504 384.855 1029.84 295.351 1051.32 321.544C1077.16 353.075 1016.18 391.682 1032.45 427.31C1045.86 456.855 1140.5 374.303 1153.54 405.834C1169.31 443.821 1030.21 447.669 1050.7 482.676C1067.72 511.6 1138.88 418.124 1146.33 450.152C1155.28 488.759 1007.85 500.924 1024.87 536.924C1038.9 566.842 1158.13 469.393 1167.94 502.414C1179.5 542.262 1065.73 532.58 1077.9 570.07C1087.96 601.228 1211.91 505.89 1212.41 538.787C1213.03 578.511 1110.19 530.345 1114.66 571.187C1118.27 604.952 1115.04 578.139 1114.91 610.415C1114.91 649.27 1121.12 678.318 1123.61 718.788C1125.72 752.305 1153.54 710.967 1143.6 742.498C1131.56 780.857 1107.96 741.877 1101.75 780.36C1096.66 812.14 1169.56 731.946 1160.24 763.477C1148.94 801.34 1035.05 741.753 1018.16 778.126C1004.13 808.292 1186.7 861.671 1173.53 893.699Z" transform="translate(2206.73 2398.89) rotate(79.554)" fill="#E0E0E0"/>
<path d="M63.9209 3.03073e-05C47.1543 3.03073e-05 -6.12617 63.6831 0.580462 75.1039C7.28709 86.5247 48.2721 36.6209 56.0965 25.8209C63.9209 15.0208 80.8117 3.03073e-05 63.9209 3.03073e-05Z" transform="translate(1243.13 2556.75) rotate(79.554)" fill="#E0E0E0"/>
<path d="M1.00288 45.8108C6.34334 50.0315 63.9707 4.59674 55.1527 0.624302C46.4589 -3.34813 30.065 12.6657 21.1228 19.6175C12.1806 26.4451 -4.21339 41.5901 1.00288 45.8108Z" transform="translate(1293.57 2495.5) rotate(79.554)" fill="#E0E0E0"/>
<path d="M2.0827 29.153C6.057 30.6426 13.2604 15.0013 13.2604 7.55299C13.2604 0.104668 9.7829 -2.75052 5.06342 3.20813C0.219743 9.29093 -1.8916 27.6633 2.0827 29.153Z" transform="translate(1041.36 2809.89) rotate(79.554)" fill="#E0E0E0"/>
<path d="M27.5131 0.112679C23.5388 -2.12182 2.30111 29.5334 0.313961 38.3473C-1.67319 47.1611 6.02704 49.6439 16.2112 46.5404C26.3953 43.5611 31.4874 2.34717 27.5131 0.112679Z" transform="translate(987.95 2790.6) rotate(79.554)" fill="#E0E0E0"/>
<path d="M38.1284 0.49975C31.6702 9.06531 7.58038e-06 95.4657 7.58038e-06 103.162C7.58038e-06 110.859 1.24195 107.756 8.94216 107.756C16.6424 107.756 24.0942 75.8519 20.1199 86.1554C16.1456 96.4589 44.4625 -8.06581 38.1284 0.49975Z" transform="translate(1030.74 2884.31) rotate(79.554)" fill="#E0E0E0"/>
<path d="M6.95503 20.6846C9.31477 19.6915 20.7409 10.5052 19.9957 6.53277C19.2505 2.56033 13.2891 -1.53615 8.56958 0.574206C3.8501 2.68456 0 12.8638 0 17.0845C0 21.3053 4.59529 21.6777 6.95503 20.6846Z" transform="translate(1087.06 2915.48) rotate(79.554)" fill="#E0E0E0"/>
<path d="M6.63029 22.4808C10.3562 21.9843 21.6581 13.1704 20.5404 9.57038C19.4226 5.97036 8.24488 -2.34687 3.4012 0.632458C-1.44248 3.61178 0.0478865 17.0187 0.917265 19.5015C1.78664 22.1084 2.90438 22.9774 6.63029 22.4808Z" transform="translate(1119.49 2923.34) rotate(79.554)" fill="#E0E0E0"/>
<path d="M0 16.3862L19.2505 15.1449L8.56961 0L0 16.3862Z" transform="translate(1180.87 3027.63) rotate(79.554)" fill="#E0E0E0"/>
<path d="M13.929 6.06146e-05C17.5307 6.06146e-05 8.71273 53.1313 6.97397 56.8555C5.23522 60.5796 1.75771 64.0556 0.267349 58.9659C-1.96819 39.8486 10.4515 6.06146e-05 13.929 6.06146e-05Z" transform="translate(819.75 2899.07) rotate(79.554)" fill="#E0E0E0"/>
<path d="M1.73639 1.91308C0.246032 3.15446 -0.499157 8.11995 0.370221 11.4717C1.2396 14.8234 4.34454 17.3061 6.95268 16.6855C9.56081 16.0648 13.4109 5.5131 11.7964 1.91308C10.1818 -1.68694 3.22676 0.671691 1.73639 1.91308Z" transform="translate(744.972 2914.27) rotate(79.554)" fill="#E0E0E0"/>
<path d="M9.93574 30.516C16.5182 30.516 30.925 19.0952 30.925 11.8952C30.925 4.69513 16.6424 -2.50494 9.81156 0.846799C2.85653 4.32268 -7.58038e-06 4.44688 -7.58038e-06 12.3918C-7.58038e-06 20.4608 3.35331 30.516 9.93574 30.516Z" transform="translate(890.746 2626.98) rotate(79.554)" fill="#E0E0E0"/>
<path d="M9.85467 23.7392C18.0517 23.7392 21.0324 16.7875 17.3065 9.33914C13.5806 1.89082 9.35789 -2.82645 2.89966 1.89082C-3.55858 6.60809 1.65768 23.7392 9.85467 23.7392Z" transform="translate(714.432 2592.64) rotate(79.554)" fill="#E0E0E0"/>
<path d="M12.286 0.355855C0.611454 -2.99589 -2.12089 17.4869 1.48082 55.2251C4.33734 69.2527 8.80842 80.4253 18.62 64.1631C27.1896 41.8182 27.5621 10.6593 22.47 5.69372C17.378 0.72818 17.2538 0.604133 12.286 0.355855Z" transform="translate(838.011 3328.91) rotate(79.554)" fill="#E0E0E0"/>
<path d="M10.0154 5.48734C-9.60768 18.2736 1.81838 50.1771 25.1674 56.8806C39.9468 60.853 49.1374 57.1289 62.4264 48.8116C82.9189 34.4115 79.3172 14.0528 59.9425 7.22516C40.5678 0.39754 17.8398 -4.07133 10.0154 5.48734Z" transform="translate(1007.09 3621.33) rotate(79.554)" fill="#E0E0E0"/>
<path d="M1173.53 893.699C1157.64 932.43 1035.8 776.76 1022.14 813.381C1010.84 843.671 1125.35 825.795 1107.59 855.216C1086.22 890.844 1071.07 910.83 1052.94 946.334C1038.03 975.63 1102.12 952.292 1081.63 980.348C1057.04 1014.11 1005.87 897.92 982.146 930.568C962.523 957.506 991.337 947.327 968.112 970.417C939.919 998.224 923.525 979.23 892.724 1002.94C867.14 1022.55 990.343 1058.06 961.654 1075.44C927.127 1096.54 908.125 1011.26 877.324 1037.95C851.864 1060.04 867.388 1126.71 837.457 1143.34C801.191 1163.33 887.757 1046.64 852.857 1069.98C823.919 1089.47 847.765 1104.73 816.592 1120.62C778.96 1139.62 789.02 1129.07 750.146 1145.33C717.979 1158.86 827.024 1220.93 793.615 1229.37C753.376 1239.55 726.922 1104.24 687.551 1115.16C655.012 1124.22 773.247 1136.14 739.714 1142.47C698.977 1149.92 660.973 1169.78 619.615 1173.13C585.461 1175.74 634.395 1179.96 599.868 1184.56C558.014 1190.14 588.318 1139.24 548.451 1142.84C515.29 1145.82 560.001 1230.86 526.592 1223.04C486.228 1213.73 512.558 1065.63 470.828 1059.67C436.177 1054.83 515.663 1218.45 484.862 1206.03C447.603 1190.89 503.74 1145.45 466.853 1131.42C436.549 1119.88 454.93 1188.78 422.639 1175.87C383.517 1160.35 367.868 1099.27 330.113 1089.09C298.939 1080.65 419.038 1164.07 392.584 1144.21C360.541 1120.25 402.395 1043.29 368.986 1023.18C341.29 1006.54 314.588 1086.61 287.141 1066.87C253.98 1043.29 333.839 984.444 299.312 965.451C270.746 949.81 266.648 1140.11 240.442 1117.65C208.896 1090.33 281.676 1020.82 254.228 990.775C231.376 966.072 192.875 1085.24 169.153 1059.92C140.712 1029.26 250.378 988.168 227.65 953.534C208.772 924.858 134.006 987.92 116.991 960.858C96.6225 928.209 163.937 919.023 137.732 885.754C115.997 858.195 149.53 948.32 129.907 919.892C106.186 885.382 138.725 852.112 119.475 817.974C103.577 789.795 37.629 894.816 23.8431 863.161C7.20072 824.678 159.963 802.457 145.183 766.457C133.012 736.664 7.57331 814.002 0.494085 779.988C-8.0755 738.898 97.7402 681.67 92.3998 642.442C88.0529 609.918 75.3848 695.574 71.2863 661.187C66.1942 619.849 60.978 611.408 53.7746 572.925C48.0615 541.021 48.9308 612.028 55.1407 579.752C62.7167 540.649 40.2371 602.221 44.8324 563.49C48.5583 531.338 16.1429 571.311 24.8367 539.78C35.145 501.793 59.115 576.028 68.3056 535.435C76.0058 501.917 -0.126919 471.379 9.80883 439.227C21.9801 400.248 135.869 469.517 152.014 434.138C165.428 404.841 89.9158 395.034 107.924 366.11C129.907 331.227 130.528 435.007 148.04 399.007C162.571 369.089 42.4726 329.241 60.7296 301.309C82.8366 267.792 203.804 398.758 230.507 366.73C252.49 340.289 68.3056 259.475 88.5497 232.164C113.016 198.895 163.937 360.027 186.168 326.758C204.55 299.323 180.331 266.551 202.066 242.095C228.395 212.426 244.417 232.909 277.453 209.571C304.776 190.454 178.468 222.854 206.537 206.964C240.567 187.847 254.725 251.778 290.866 231.792C320.674 215.405 303.534 185.985 332.597 169.847C367.744 150.233 392.087 231.792 428.725 212.302C459.029 196.288 320.053 61.846 351.474 48.5632C389.603 32.5493 340.173 170.84 378.798 157.433C410.841 146.26 417.671 126.15 450.459 116.591C490.078 105.046 403.14 109.267 443.38 105.046C476.541 101.57 470.331 93.7496 504.485 90.522C545.718 86.4255 469.213 119.074 509.329 117.212C542.489 115.722 498.896 38.7562 531.063 35.7769C569.813 32.1769 540.378 155.198 580.618 150.233C613.778 146.136 572.421 -2.2095 604.215 0.0249904C642.716 2.88018 619.988 167.985 660.104 173.198C693.389 177.419 727.418 24.1079 759.213 26.9631C797.714 30.4389 735.243 152.095 775.234 161.529C808.271 169.474 789.765 45.4597 821.56 57.0046C859.688 71.0323 763.932 194.302 798.956 213.792C827.894 229.806 861.551 145.764 890.862 159.171C926.133 175.433 761.945 130.495 799.453 146.012C830.502 158.922 859.191 98.7152 883.161 120.439C912.099 146.757 841.928 163.764 868.879 191.323C891.358 213.916 907.628 160.04 929.735 185.861C956.313 217.019 885.148 295.723 915.949 322.413C941.534 344.51 978.917 187.474 999.037 212.799C1023.26 243.213 914.583 334.951 942.403 362.261C965.504 384.855 1029.84 295.351 1051.32 321.544C1077.16 353.075 1016.18 391.682 1032.45 427.31C1045.86 456.855 1140.5 374.303 1153.54 405.834C1169.31 443.821 1030.21 447.669 1050.7 482.676C1067.72 511.6 1138.88 418.124 1146.33 450.152C1155.28 488.759 1007.85 500.924 1024.87 536.924C1038.9 566.842 1158.13 469.393 1167.94 502.414C1179.5 542.262 1065.73 532.58 1077.9 570.07C1087.96 601.228 1211.91 505.89 1212.41 538.787C1213.03 578.511 1110.19 530.345 1114.66 571.187C1118.27 604.952 1115.04 578.139 1114.91 610.415C1114.91 649.27 1121.12 678.318 1123.61 718.788C1125.72 752.305 1153.54 710.967 1143.6 742.498C1131.56 780.857 1107.96 741.877 1101.75 780.36C1096.66 812.14 1169.56 731.946 1160.24 763.477C1148.94 801.34 1035.05 741.753 1018.16 778.126C1004.13 808.292 1186.7 861.671 1173.53 893.699Z" transform="translate(-328.568 5308.67) rotate(-131.448)" fill="#E0E0E0"/>
<path d="M63.9209 3.03073e-05C47.1543 3.03073e-05 -6.12617 63.6831 0.580462 75.1039C7.28709 86.5247 48.2721 36.6209 56.0965 25.8209C63.9209 15.0208 80.8117 3.03073e-05 63.9209 3.03073e-05Z" transform="translate(416.074 4677.04) rotate(-131.448)" fill="#E0E0E0"/>
<path d="M1.00288 45.8108C6.34334 50.0315 63.9707 4.59674 55.1527 0.624302C46.4589 -3.34813 30.065 12.6657 21.1228 19.6175C12.1806 26.4451 -4.21339 41.5901 1.00288 45.8108Z" transform="translate(404.393 4755.53) rotate(-131.448)" fill="#E0E0E0"/>
<path d="M2.0827 29.153C6.057 30.6426 13.2604 15.0013 13.2604 7.55299C13.2604 0.104668 9.7829 -2.75052 5.06342 3.20813C0.219743 9.29093 -1.8916 27.6633 2.0827 29.153Z" transform="translate(458.638 4356.14) rotate(-131.448)" fill="#E0E0E0"/>
<path d="M27.5131 0.112679C23.5388 -2.12182 2.30111 29.5334 0.313961 38.3473C-1.67319 47.1611 6.02704 49.6439 16.2112 46.5404C26.3953 43.5611 31.4874 2.34717 27.5131 0.112679Z" transform="translate(514.358 4345.17) rotate(-131.448)" fill="#E0E0E0"/>
<path d="M38.1284 0.49975C31.6702 9.06531 7.58038e-06 95.4657 7.58038e-06 103.162C7.58038e-06 110.859 1.24195 107.756 8.94216 107.756C16.6424 107.756 24.0942 75.8519 20.1199 86.1554C16.1456 96.4589 44.4625 -8.06581 38.1284 0.49975Z" transform="translate(429.41 4286.88) rotate(-131.448)" fill="#E0E0E0"/>
<path d="M6.95503 20.6846C9.31477 19.6915 20.7409 10.5052 19.9957 6.53277C19.2505 2.56033 13.2891 -1.53615 8.56958 0.574206C3.8501 2.68456 0 12.8638 0 17.0845C0 21.3053 4.59529 21.6777 6.95503 20.6846Z" transform="translate(365.087 4289.17) rotate(-131.448)" fill="#E0E0E0"/>
<path d="M6.63029 22.4808C10.3562 21.9843 21.6581 13.1704 20.5404 9.57038C19.4226 5.97036 8.24488 -2.34687 3.4012 0.632458C-1.44248 3.61178 0.0478865 17.0187 0.917265 19.5015C1.78664 22.1084 2.90438 22.9774 6.63029 22.4808Z" transform="translate(333.236 4299.14) rotate(-131.448)" fill="#E0E0E0"/>
<path d="M0 16.3862L19.2505 15.1449L8.56961 0L0 16.3862Z" transform="translate(226.912 4241.36) rotate(-131.448)" fill="#E0E0E0"/>
<path d="M13.929 6.06146e-05C17.5307 6.06146e-05 8.71273 53.1313 6.97397 56.8555C5.23522 60.5796 1.75771 64.0556 0.267349 58.9659C-1.96819 39.8486 10.4515 6.06146e-05 13.929 6.06146e-05Z" transform="translate(602.661 4165.56) rotate(-131.448)" fill="#E0E0E0"/>
<path d="M1.73639 1.91308C0.246032 3.15446 -0.499157 8.11995 0.370221 11.4717C1.2396 14.8234 4.34454 17.3061 6.95268 16.6855C9.56081 16.0648 13.4109 5.5131 11.7964 1.91308C10.1818 -1.68694 3.22676 0.671691 1.73639 1.91308Z" transform="translate(658.929 4114.01) rotate(-131.448)" fill="#E0E0E0"/>
<path d="M9.93574 30.516C16.5182 30.516 30.925 19.0952 30.925 11.8952C30.925 4.69513 16.6424 -2.50494 9.81156 0.846799C2.85653 4.32268 -7.58038e-06 4.44688 -7.58038e-06 12.3918C-7.58038e-06 20.4608 3.35331 30.516 9.93574 30.516Z" transform="translate(681.949 4435.34) rotate(-131.448)" fill="#E0E0E0"/>
<path d="M9.85467 23.7392C18.0517 23.7392 21.0324 16.7875 17.3065 9.33914C13.5806 1.89082 9.35789 -2.82645 2.89966 1.89082C-3.55858 6.60809 1.65768 23.7392 9.85467 23.7392Z" transform="translate(850.768 4373.97) rotate(-131.448)" fill="#E0E0E0"/>
<path d="M1.07661 3.72416C3.06376 5.21382 47.7746 15.3932 53.8603 13.9035C59.8217 12.4139 62.1815 12.4139 58.2072 5.46213C54.2329 -1.48963 5.7961 0.124154 2.81537 0.248292C-0.0411564 0.620708 -0.910536 2.23449 1.07661 3.72416Z" transform="translate(204.914 5195.4) rotate(-131.448)" fill="#E0E0E0"/>
<path d="M12.286 0.355855C0.611454 -2.99589 -2.12089 17.4869 1.48082 55.2251C4.33734 69.2527 8.80842 80.4253 18.62 64.1631C27.1896 41.8182 27.5621 10.6593 22.47 5.69372C17.378 0.72818 17.2538 0.604133 12.286 0.355855Z" transform="translate(365.616 3806.52) rotate(-131.448)" fill="#E0E0E0"/>
<path d="M10.0154 5.48734C-9.60768 18.2736 1.81838 50.1771 25.1674 56.8806C39.9468 60.853 49.1374 57.1289 62.4264 48.8116C82.9189 34.4115 79.3172 14.0528 59.9425 7.22516C40.5678 0.39754 17.8398 -4.07133 10.0154 5.48734Z" transform="translate(70.0767 3642.96) rotate(-131.448)" fill="#E0E0E0"/>
</svg>
