<svg width="47" height="48" viewBox="0 0 47 48" fill="none" xmlns="http://www.w3.org/2000/svg">
<path d="M22.8764 11.3686C16.3862 11.3686 11.1512 16.7106 11.1512 23.3333C11.1512 29.9561 16.3862 35.2981 22.8764 35.2981C29.3666 35.2981 34.6016 29.9561 34.6016 23.3333C34.6016 16.7106 29.3666 11.3686 22.8764 11.3686ZM22.8764 31.112C18.6823 31.112 15.2535 27.6236 15.2535 23.3333C15.2535 19.0431 18.6721 15.5547 22.8764 15.5547C27.0807 15.5547 30.4993 19.0431 30.4993 23.3333C30.4993 27.6236 27.0705 31.112 22.8764 31.112ZM37.8161 10.8792C37.8161 12.4307 36.5915 13.6699 35.0812 13.6699C33.5607 13.6699 32.3464 12.4203 32.3464 10.8792C32.3464 9.33802 33.5709 8.08844 35.0812 8.08844C36.5915 8.08844 37.8161 9.33802 37.8161 10.8792ZM45.5819 13.7116C45.4084 9.97322 44.5716 6.66183 41.8877 3.93358C39.2141 1.20533 35.969 0.351445 32.3055 0.164008C28.5298 -0.054669 17.2128 -0.054669 13.437 0.164008C9.78376 0.341032 6.53866 1.19491 3.85483 3.92317C1.17099 6.65142 0.344409 9.96281 0.160724 13.7011C-0.0535747 17.554 -0.0535747 29.1022 0.160724 32.9551C0.334204 36.6934 1.17099 40.0048 3.85483 42.7331C6.53866 45.4613 9.77355 46.3152 13.437 46.5027C17.2128 46.7213 28.5298 46.7213 32.3055 46.5027C35.969 46.3256 39.2141 45.4718 41.8877 42.7331C44.5614 40.0048 45.3982 36.6934 45.5819 32.9551C45.7962 29.1022 45.7962 17.5644 45.5819 13.7116ZM40.704 37.0891C39.908 39.1301 38.3671 40.7025 36.3568 41.5252C33.3464 42.7435 26.2031 42.4623 22.8764 42.4623C19.5497 42.4623 12.3962 42.7331 9.39598 41.5252C7.39586 40.7129 5.85495 39.1405 5.04878 37.0891C3.85483 34.0173 4.13035 26.728 4.13035 23.3333C4.13035 19.9386 3.86503 12.639 5.04878 9.57752C5.84474 7.53654 7.38565 5.96415 9.39598 5.14151C12.4064 3.92317 19.5497 4.20432 22.8764 4.20432C26.2031 4.20432 33.3566 3.93358 36.3568 5.14151C38.3569 5.95373 39.8978 7.52613 40.704 9.57752C41.898 12.6494 41.6224 19.9386 41.6224 23.3333C41.6224 26.728 41.898 34.0277 40.704 37.0891Z" transform="translate(0.336624 0.666748)" fill="white"/>
</svg>
